# xmcd
# Track frame offsets:
# 150
# 12664
# 24618
# 36587
# 52093
# 65368
# 76037
#
# Disc length: 1250 seconds
# Revision: 0
# Processed by: cddbd v1.5.2PL0 Copyright (c) Steve Scherf et al.
# Submitted via: VisiTrax 2.11.2.271 - For more info visit www.synapsa.com
#
DISCID=5904e007
DTITLE=Renee'Jennifer - No One's Girl
DYEAR=2012
DGENRE=Country
TTITLE0=Bumpy Ride
TTITLE1=No One's Girl
TTITLE2=He's History
TTITLE3=When He Was Still Around
TTITLE4=Steer Right
TTITLE5=I Surrender
TTITLE6=In His Field of Gold
EXTD=
EXTT0=
EXTT1=
EXTT2=
EXTT3=
EXTT4=
EXTT5=
EXTT6=
PLAYORDER=
